<?xml version="1.0" encoding="UTF-8" standalone="no"?>
<!-- Created with Inkscape (http://www.inkscape.org/) -->

<svg
   width="6mm"
   height="6mm"
   viewBox="0 0 6 6"
   version="1.1"
   id="svg1"
   xml:space="preserve"
   xmlns="http://www.w3.org/2000/svg"
   xmlns:svg="http://www.w3.org/2000/svg"><defs
     id="defs1" /><g
     id="layer1"><path
       style="opacity:1;fill:#9e3b3b;fill-opacity:1;stroke:#9e3b3b;stroke-width:0.137893;stroke-linecap:round;stroke-linejoin:round;stroke-dasharray:none;stroke-opacity:1;paint-order:markers fill stroke"
       d="m 2.9939666,5.5252025 c 0,0 -1.51012,-1.4353659 -1.931657,-2.3865461 C 0.80234756,2.5520625 0.52822856,1.8234152 0.75075156,1.2194072 0.86780156,0.90168676 1.2016506,0.67006645 1.5140676,0.60190858 c 0.440564,-0.0961124 0.974561,0.0280031 1.308543,0.35047199 0.316037,0.30514473 0.436181,1.28506293 0.436181,1.28506293 0,0 0.123484,-1.0033183 0.43618,-1.33513016 0.218167,-0.23150185 0.566159,-0.34178419 0.872361,-0.31709384 0.338119,0.0272609 0.765376,0.1689246 0.903518,0.5006737 0.277594,0.6666395 -0.190222,1.4772749 -0.514071,2.1195195 -0.463025,0.9182516 -1.962813,2.3197898 -1.962813,2.3197898 z"
       id="path9" /></g></svg>
