<?xml version="1.0" encoding="UTF-8" standalone="no"?>
<!-- Created with Inkscape (http://www.inkscape.org/) -->

<svg
   width="99mm"
   height="47mm"
   viewBox="0 0 99 47"
   version="1.1"
   id="svg1"
   xml:space="preserve"
   xmlns="http://www.w3.org/2000/svg"
   xmlns:svg="http://www.w3.org/2000/svg"><defs
     id="defs1" /><path
     style="opacity:1;fill:#ebebf5;fill-opacity:1;stroke:none;stroke-width:1;stroke-linecap:round;stroke-linejoin:round;stroke-dasharray:none;stroke-opacity:1;paint-order:markers fill stroke"
     d="m 34.779938,7.4057559 c 0,0 2.82979,-6.80617248 13.68591,-6.80293868 10.76254,0.00321 13.44581,4.80207398 13.44581,4.80207398 0,0 4.4844,-3.6360931 12.16525,-3.0413133 3.70476,0.2868837 7.49769,1.6870113 10.4045,4.001728 5.9287,4.7210661 5.13359,12.4518621 5.13359,12.4518621 0,0 5.95533,3.793988 7.15901,6.876049 1.12755,2.887128 0.86344,6.531016 -0.56593,9.28125 -1.64666,3.168336 -5.1125,5.22848 -8.37576,6.677972 -5.10167,2.266091 -10.94568,2.894712 -16.52515,2.716464 -4.52796,-0.144655 -9.05734,-1.322364 -13.24276,-3.056023 -1.97302,-0.817255 -5.43292,-3.39558 -5.43292,-3.39558 0,0 -3.699149,4.089665 -8.82851,5.319742 -8.73926,2.09577 -14.14825,-1.131859 -14.14825,-1.131859 0,0 -5.76034,3.757032 -9.05488,4.074695 C 16.163648,46.607621 10.057744,45.627833 7.4702823,43.689785 4.2171068,41.253108 1.0614572,39.805948 0.90548829,32.597561 0.7582852,25.794302 5.7724883,22.071264 5.7724883,22.071264 c 0,0 -0.97858,-7.175555 0.45275,-10.299923 1.48957,-3.2515091 4.5796997,-5.8217028 7.8098297,-7.3570881 3.36861,-1.6012093 7.40464,-2.0309952 11.09222,-1.4714175 3.50469,0.5318246 9.65265,4.4629205 9.65265,4.4629205 z"
     id="path3" /></svg>
