<?xml version="1.0" encoding="UTF-8" standalone="no"?>
<!-- Created with Inkscape (http://www.inkscape.org/) -->

<svg
   width="77mm"
   height="121mm"
   viewBox="0 0 77 121"
   version="1.1"
   id="svg1"
   xml:space="preserve"
   xmlns:xlink="http://www.w3.org/1999/xlink"
   xmlns="http://www.w3.org/2000/svg"
   xmlns:svg="http://www.w3.org/2000/svg"><defs
     id="defs1"><linearGradient
       id="linearGradient11"><stop
         style="stop-color:#b48026;stop-opacity:1;"
         offset="0"
         id="stop11" /><stop
         style="stop-color:#c36a95;stop-opacity:1;"
         offset="1"
         id="stop12" /></linearGradient><linearGradient
       xlink:href="#linearGradient11"
       id="linearGradient12"
       x1="78.962807"
       y1="105.43424"
       x2="78.318146"
       y2="107.05977"
       gradientUnits="userSpaceOnUse" /></defs><g
     id="layer1"
     style="display:inline"><g
       id="g49"
       transform="translate(-1.5875,-3.4395833)"><g
         id="g48"
         transform="matrix(1.757762,0,0,1.0456468,-133.9927,-26.604415)"
         style="display:inline"><path
           style="opacity:1;fill:#a1bc98;fill-opacity:1;stroke:#5f8053;stroke-width:0.15;stroke-linecap:round;stroke-linejoin:round;stroke-opacity:1;paint-order:markers fill stroke"
           d="m 97.753828,134.37643 c 0.946056,2.7607 1.106148,5.78396 0.982215,8.69963 -0.0068,0.15885 0.03875,0.37953 -0.09354,0.46772 -0.661456,0.44098 -1.590572,-0.1986 -2.338609,-0.46772 -1.549011,-0.55728 -2.982931,-1.4212 -4.349811,-2.33861 -1.710545,-1.14806 -3.340563,-2.44611 -4.77076,-3.92886 -1.158183,-1.20074 -2.127827,-2.57895 -3.040192,-3.97564 -0.934992,-1.43133 -1.79595,-2.92282 -2.478924,-4.49013 -0.458903,-1.05311 -0.691886,-2.19134 -1.075759,-3.27405 -0.351232,-0.99065 -0.586386,-2.04259 -1.122534,-2.94664 -0.428713,-0.72289 -0.799365,-0.70428 -1.438243,-1.32131 -0.983415,-0.9498 2.536418,-0.38138 3.870396,-0.0819 1.664445,0.37372 3.336542,0.83133 4.864306,1.59026 1.495064,0.74269 2.848604,1.76653 4.115951,2.8531 1.28932,1.10541 2.475191,2.34676 3.507912,3.695 1.310503,1.7109 2.668941,3.48037 3.367592,5.51911 z"
           id="path36" /><path
           style="opacity:1;fill:none;fill-opacity:1;stroke:#5f8053;stroke-width:0.15;stroke-linecap:round;stroke-linejoin:round;stroke-opacity:1;paint-order:markers fill stroke"
           d="m 98.469937,137.33847 c 0,0 -1.250235,-1.38549 -1.731657,-2.07024 -0.798254,-1.1354 -1.243989,-2.49978 -2.083594,-3.60495 -0.933754,-1.2291 -2.10332,-2.26425 -3.241145,-3.30729 -1.48377,-1.36017 -3.023288,-2.66939 -4.663282,-3.83646 -1.136868,-0.80903 -2.360449,-1.49039 -3.571875,-2.18281 -0.650842,-0.372 -1.421885,-0.56277 -1.984375,-1.05834 -0.243284,-0.21434 -1.497682,-0.88729 -1.497682,-0.88729"
           id="path42" /><path
           style="opacity:1;fill:none;fill-opacity:1;stroke:#5f8053;stroke-width:0.15;stroke-linecap:round;stroke-linejoin:round;stroke-opacity:1;paint-order:markers fill stroke"
           d="m 98.648828,138.93783 c 0,0 -1.574988,-1.50581 -2.208204,-2.24747 -0.825907,-0.96734 -1.312615,-2.18941 -2.116667,-3.175 -1.029908,-1.26243 -2.297381,-2.31083 -3.439583,-3.47265 -1.339031,-1.36203 -2.56931,-2.8377 -4.001823,-4.10104 -0.767304,-0.67669 -1.597918,-1.28196 -2.447396,-1.85209 -1.042405,-0.69962 -2.170374,-1.26285 -3.241146,-1.91823 -0.545204,-0.3337 -1.101517,-0.65219 -1.620573,-1.02526 -0.369096,-0.26529 -1.058333,-0.85989 -1.058333,-0.85989"
           id="path43" /><path
           style="opacity:1;fill:none;fill-opacity:1;stroke:#5f8053;stroke-width:0.15;stroke-linecap:round;stroke-linejoin:round;stroke-opacity:1;paint-order:markers fill stroke"
           d="m 98.640174,140.76337 c 0,0 -2.237806,-2.43868 -2.9933,-3.3454 -1.149512,-1.37961 -2.192028,-2.84787 -3.373438,-4.20026 -1.380042,-1.57977 -2.835455,-3.09475 -4.332552,-4.56407 -1.11939,-1.09862 -2.28421,-2.15148 -3.472656,-3.175 -1.193718,-1.02806 -2.432543,-2.00298 -3.671094,-2.97656 -0.915275,-0.71947 -2.778125,-2.11666 -2.778125,-2.11666"
           id="path44" /><path
           style="opacity:1;fill:none;fill-opacity:1;stroke:#5f8053;stroke-width:0.15;stroke-linecap:round;stroke-linejoin:round;stroke-opacity:1;paint-order:markers fill stroke"
           d="m 98.743234,142.03367 c 0,0 -3.3735,-3.64233 -4.816152,-5.07872 -1.138827,-1.13389 -2.409775,-2.13058 -3.538802,-3.27422 -1.272267,-1.28874 -2.39434,-2.71855 -3.638021,-4.0349 -1.05466,-1.11628 -2.170725,-2.17304 -3.241145,-3.27422 -0.934819,-0.96168 -1.699307,-2.11362 -2.778125,-2.91041 -0.257778,-0.19039 -1.023599,-0.92106 -1.023599,-0.92106"
           id="path45" /><path
           style="opacity:1;fill:none;fill-opacity:1;stroke:#5f8053;stroke-width:0.15;stroke-linecap:round;stroke-linejoin:round;stroke-opacity:1;paint-order:markers fill stroke"
           d="m 98.711307,142.54077 c 0,0 -2.441237,-1.90532 -3.5936,-2.70848 -1.663099,-1.15913 -3.466031,-2.12115 -5.060156,-3.37344 -1.766991,-1.38809 -2.61312,-3.21052 -3.935677,-5.02708 -1.085851,-1.49144 -2.251698,-3.07467 -3.340365,-4.56406 -0.607845,-0.83158 -2.515892,-2.78518 -2.515892,-2.78518"
           id="path46" /><path
           style="opacity:1;fill:none;fill-opacity:1;stroke:#5f8053;stroke-width:0.15;stroke-linecap:round;stroke-linejoin:round;stroke-opacity:1;paint-order:markers fill stroke"
           d="m 98.656509,143.07344 c 0,0 -2.976679,-1.31192 -4.365625,-2.14974 -1.703159,-1.02736 -3.29045,-2.24471 -4.828646,-3.50573 -0.904995,-0.74192 -1.768706,-1.53759 -2.579687,-2.38125 -1.224768,-1.27413 -2.389359,-2.61346 -3.439583,-4.0349 -0.683329,-0.92486 -1.852084,-2.91042 -1.852084,-2.91042"
           id="path47" /></g><g
         id="g47"
         transform="matrix(1.6681837,0,0,1.589214,-125.0046,-104.75477)"
         style="display:inline"><path
           style="opacity:1;fill:#a1bc98;fill-opacity:1;stroke:#5f8053;stroke-width:0.15;stroke-linecap:round;stroke-linejoin:round;stroke-opacity:1;paint-order:markers fill stroke"
           d="m 99.484398,143.35669 c -0.992674,-1.41309 -0.90984,-3.4446 -0.608039,-5.14494 0.229084,-1.29065 1.117462,-2.37529 1.777341,-3.50791 1.14934,-1.97273 2.26221,-4.00828 3.78855,-5.70621 1.74688,-1.94326 3.74233,-3.74848 6.03361,-5.00462 1.92393,-1.05475 4.1054,-1.63775 6.26747,-2.0112 1.46023,-0.25223 6.05026,-0.92699 3.91114,1.0623 -0.84946,0.78997 -0.79771,0.70062 -1.52576,1.60371 -1.01902,1.264 -2.12217,2.45876 -3.22728,3.64823 -1.2157,1.30849 -2.55329,2.50207 -3.74178,3.83532 -1.36425,1.53043 -2.58269,3.18488 -3.88208,4.77076 -1.02478,1.25072 -1.97812,2.56494 -3.08697,3.74177 -0.6279,0.6664 -1.24051,1.37653 -2.0112,1.87089 -0.89439,0.5737 -1.88477,1.25446 -2.94665,1.21608 -0.278713,-0.0101 -0.588036,-0.14597 -0.748352,-0.37418 z"
           id="path37" /><path
           style="opacity:1;fill:none;fill-opacity:1;stroke:#5f8053;stroke-width:0.15;stroke-linecap:round;stroke-linejoin:round;stroke-opacity:1;paint-order:markers fill stroke"
           d="m 98.712656,140.62052 c 0,0 1.707724,-2.22689 2.268454,-3.20389 0.82428,-1.43621 1.3565,-3.03141 2.22168,-4.44336 0.85043,-1.38789 1.83571,-2.69718 2.89987,-3.92886 0.92616,-1.07195 1.84527,-2.19695 3.0168,-2.99342 1.5271,-1.03821 3.31852,-1.65117 5.07478,-2.22168 1.28264,-0.41666 2.48446,-0.84609 3.78689,-1.19601 0.96425,-0.25906 3.04327,-0.70535 3.04327,-0.70535"
           id="path38" /><path
           style="opacity:1;fill:none;fill-opacity:1;stroke:#5f8053;stroke-width:0.15;stroke-linecap:round;stroke-linejoin:round;stroke-opacity:1;paint-order:markers fill stroke"
           d="m 98.788801,141.32057 c 0,0 1.183377,-0.98827 1.703259,-1.55443 0.80832,-0.88028 1.56212,-1.82298 2.18281,-2.84427 0.68902,-1.13372 0.97877,-2.48295 1.68672,-3.60494 0.51409,-0.81475 1.24542,-1.47095 1.83554,-2.23243 0.5748,-0.74171 1.00031,-1.60611 1.65949,-2.27395 1.0952,-1.10961 2.40708,-2.00053 3.74177,-2.80633 1.43285,-0.86506 2.96878,-1.56638 4.5369,-2.15152 1.47074,-0.54881 5.00405,-1.5109 5.00405,-1.5109"
           id="path39" /><path
           style="opacity:1;fill:none;fill-opacity:1;stroke:#5f8053;stroke-width:0.15;stroke-linecap:round;stroke-linejoin:round;stroke-opacity:1;paint-order:markers fill stroke"
           d="m 98.946519,141.93014 c 0,0 1.140301,-1.12814 1.707181,-1.69549 0.91559,-0.91634 1.87762,-1.78958 2.73617,-2.75956 0.59228,-0.66915 1.12258,-1.39111 1.66042,-2.10475 0.85548,-1.1351 1.57275,-2.37587 2.49062,-3.46114 1.04474,-1.23528 2.20887,-2.37048 3.41436,-3.44945 0.80011,-0.71613 1.68081,-1.3368 2.5257,-1.9995 0.64474,-0.50571 1.24573,-1.07483 1.94104,-1.50841 0.46292,-0.28867 1.57248,-0.92504 2.73004,-1.34091 1.27249,-0.45716 2.57861,-0.68198 2.57861,-0.68198"
           id="path40" /><path
           style="opacity:1;fill:none;fill-opacity:1;stroke:#5f8053;stroke-width:0.15;stroke-linecap:round;stroke-linejoin:round;stroke-opacity:1;paint-order:markers fill stroke"
           d="m 120.04089,123.59615 c 0,0 -1.23124,0.21354 -1.76577,0.54887 -1.06132,0.66581 -1.97826,1.53796 -2.97004,2.30353 -1.2256,0.94606 -2.51776,1.8106 -3.68331,2.82972 -0.58717,0.51341 -1.14631,1.06215 -1.66041,1.64872 -1.79478,2.04778 -3.44875,4.22703 -4.94615,6.50133 -0.53171,0.80758 -0.78906,1.79871 -1.42655,2.5257 -0.62394,0.71154 -1.44977,1.23247 -2.26845,1.70718 -0.49543,0.28727 -1.06012,0.4349 -1.578565,0.6782 -0.194096,0.0911 -0.572957,0.29232 -0.572957,0.29232"
           id="path41" /></g><path
         style="display:inline;opacity:1;fill:#97a87a;fill-opacity:1;stroke:#65734b;stroke-width:0.15;stroke-linecap:round;stroke-linejoin:round;stroke-opacity:1;paint-order:markers fill stroke"
         d="m 41.326207,36.076021 c -0.402012,9.407337 0.637557,20.03607 2.6759,25.354025 1.200744,3.132693 3.005065,7.213075 4.205214,15.161742 1.927055,12.763015 -0.343143,14.420154 -5.957423,20.427713 -0.952071,1.00964 -5.783231,8.874909 -5.915754,13.802759 -0.06748,2.50915 0.820153,4.50057 1.389063,6.94531 0.443838,1.90727 0.190965,4.88316 1.785937,6.01927 0.549424,0.39136 1.582575,0.14496 1.984375,-0.39687 1.082041,-1.45915 -0.131053,-3.65155 -0.529167,-5.42396 -0.400453,-1.78282 -1.58883,-3.3512 -1.852083,-5.15938 -0.229066,-1.57336 0.523228,-3.2227 0.919393,-4.7625 0.48573,-1.88792 3.40853,-7.22881 6.300878,-10.799759 2.644775,-3.26531 5.286027,-6.225594 5.41553,-12.218994 0.566168,-11.574629 -1.205561,-16.601602 -5.48265,-25.719379 -0.82454,-1.87679 -0.723099,-4.562615 -1.142476,-6.569184 -1.001478,-4.79172 -1.131196,-22.552787 -0.980838,-26.418921 0.138702,-3.566436 -2.560065,3.771465 -2.815899,9.758128 z"
         id="path48" /></g><g
       id="g35"
       style="display:inline"
       transform="translate(-36.720673,-80.519169)"><path
         style="display:inline;opacity:1;fill:#c1afd6;fill-opacity:1;stroke:#7f55b1;stroke-width:0.15;stroke-linecap:round;stroke-linejoin:round;stroke-opacity:1;paint-order:markers fill stroke"
         d="m 79.706353,102.76944 c -1.359339,-0.49311 -2.919952,-0.90501 -3.747233,-2.091 -0.587992,-0.842945 -0.805618,-1.892044 -1.159367,-2.857006 -0.335007,-0.913837 -0.647575,-1.837194 -0.910929,-2.774196 -0.285792,-1.016835 -0.496374,-2.053459 -0.724604,-3.08474 -0.117272,-0.529905 -0.257467,-1.05644 -0.331248,-1.594128 -0.09685,-0.705827 -0.30501,-1.438183 -0.14492,-2.132404 0.09655,-0.418704 0.396361,-0.765253 0.641792,-1.117957 0.430998,-0.619378 0.906078,-1.215218 1.449208,-1.739048 0.527575,-0.508828 1.098377,-0.989627 1.739048,-1.345692 0.501962,-0.278975 1.068886,-0.422228 1.614828,-0.600385 0.531684,-0.173504 1.071271,-0.3238 1.614829,-0.455467 0.438016,-0.106101 1.242179,-0.269136 1.324991,-0.269136 0.08281,0 1.173056,-0.21203 1.739046,-0.393356 0.356404,-0.114181 0.717925,-0.236191 1.035147,-0.434764 0.256977,-0.160861 0.413733,-0.461454 0.6832,-0.600384 0.107121,-0.05523 0.237246,-0.119803 0.351948,-0.08281 0.200185,0.06456 0.28785,0.307902 0.41406,0.476168 0.137833,0.183763 0.226823,0.402198 0.372652,0.579683 0.164215,0.199862 0.3574,0.376176 0.55898,0.538277 0.329633,0.265074 0.683724,0.502796 1.055852,0.7039 0.402577,0.21756 0.855451,0.329945 1.26288,0.538276 0.523711,0.26779 1.044776,0.552701 1.511313,0.910929 0.425813,0.326958 0.765608,0.753032 1.159367,1.117959 0.433787,0.402025 0.928859,0.740892 1.324989,1.180069 0.245016,0.271642 0.462934,0.571115 0.641791,0.890227 0.226841,0.404723 0.409007,0.837995 0.538277,1.283581 0.126758,0.436926 0.232131,0.890771 0.227732,1.345692 -0.005,0.519708 -0.119095,1.041136 -0.289843,1.53202 -0.107494,0.309035 -0.289763,0.587388 -0.455465,0.869524 -0.689196,1.173473 -1.419166,2.327432 -2.235917,3.415985 -0.566927,0.755591 -1.207705,1.453623 -1.842563,2.153108 -0.682267,0.75172 -1.394886,1.475655 -2.111701,2.194505 -0.630629,0.63242 -1.148018,1.42353 -1.925372,1.86327 -0.745973,0.42199 -1.326555,-0.14994 -2.173812,-0.0207 -1.13347,0.1729 -2.131104,0.391 -3.208956,0 z"
         id="path5" /><path
         style="opacity:1;fill:none;fill-opacity:1;stroke:#7f55b1;stroke-width:0.15;stroke-linecap:round;stroke-linejoin:round;stroke-opacity:1;paint-order:markers fill stroke"
         d="m 86.505123,96.163573 c 0,0 0.838127,-1.310003 1.169302,-2.011201 0.401335,-0.849746 0.84012,-1.71368 0.982218,-2.642629 0.203017,-1.327198 -0.210476,-4.022405 -0.210476,-4.022405"
         id="path31" /><path
         style="opacity:1;fill:none;fill-opacity:1;stroke:#7f55b1;stroke-width:0.15;stroke-linecap:round;stroke-linejoin:round;stroke-opacity:1;paint-order:markers fill stroke"
         d="m 85.990627,85.499521 c 0,0 0.306432,1.786558 0.327406,2.6894 0.02669,1.148812 -0.01145,2.315228 -0.257246,3.437755 -0.334498,1.527626 -1.637027,4.396581 -1.637027,4.396581"
         id="path32" /><path
         style="opacity:1;fill:none;fill-opacity:1;stroke:#7f55b1;stroke-width:0.15;stroke-linecap:round;stroke-linejoin:round;stroke-opacity:1;paint-order:markers fill stroke"
         d="m 84.353603,82.880278 c 0,0 -0.490142,1.884754 -0.724969,2.829716 -0.369347,1.486282 -0.783956,2.963314 -1.075759,4.466744 -0.283784,1.462118 -0.46825,2.942297 -0.654812,4.41997 -0.06578,0.520995 -0.163703,1.566865 -0.163703,1.566865"
         id="path33" /><path
         style="opacity:1;fill:none;fill-opacity:1;stroke:#7f55b1;stroke-width:0.15;stroke-linecap:round;stroke-linejoin:round;stroke-opacity:1;paint-order:markers fill stroke"
         d="m 81.056164,84.844709 c 0,0 -1.170311,2.736125 -1.449938,4.18611 -0.24827,1.287384 -0.204564,2.617874 -0.187087,3.928862 0.01261,0.94576 0.031,1.901055 0.210474,2.829716 0.131919,0.682601 0.631425,1.987817 0.631425,1.987817"
         id="path34" /><path
         style="opacity:1;fill:none;fill-opacity:1;stroke:#7f55b1;stroke-width:0.15;stroke-linecap:round;stroke-linejoin:round;stroke-opacity:1;paint-order:markers fill stroke"
         d="m 76.893443,85.780154 c 0,0 -0.43696,1.591403 -0.514496,2.408767 -0.103824,1.094481 -0.07577,2.207771 0.07016,3.297438 0.157849,1.178698 0.490728,2.332444 0.865285,3.461139 0.178287,0.537254 0.65481,1.566868 0.65481,1.566868"
         id="path35" /></g><g
       id="g16"
       style="display:inline"
       transform="translate(-36.720673,-80.519169)"><path
         style="display:inline;opacity:1;fill:#c1afd6;fill-opacity:1;stroke:#7f55b1;stroke-width:0.15;stroke-linecap:round;stroke-linejoin:round;stroke-opacity:1;paint-order:markers fill stroke"
         d="m 79.457917,103.97021 c 0,0 -0.627771,2.16736 -0.7039,3.31247 -0.100977,1.51888 -0.105496,3.11863 -0.207029,4.63746 -0.07563,1.13134 -0.207029,3.27107 -0.207029,3.27107 0,0 0.01374,1.89736 0.207029,2.73279 0.12541,0.54205 0.452231,1.039 0.828117,1.4492 0.703562,0.76778 1.629867,1.32664 2.567167,1.78046 0.597311,0.28921 1.247408,0.48787 1.904669,0.57968 0.7656,0.10695 1.545699,-0.0406 2.318732,-0.0414 1.349603,0.2151 2.454198,-0.13978 4.099184,0.0828 0.361086,0.0489 0.661661,0.19432 0.952336,0.41405 0.220202,0.16646 0.652142,0.383 0.652142,0.383 0,0 0.239701,-0.0121 0.341599,-0.0932 0.229125,-0.18227 0.453626,-0.38092 0.621088,-0.62108 0.452118,-0.64839 0.640963,-1.44574 0.993741,-2.15311 0.377559,-0.75706 0.890057,-1.44906 1.200771,-2.23592 0.256984,-0.65079 0.402477,-1.3425 0.538277,-2.02889 0.143206,-0.72383 0.312374,-1.457 0.289843,-2.19451 -0.03306,-1.08222 -0.345807,-2.1411 -0.621091,-3.18825 -0.07768,-0.29548 -0.150385,-0.59769 -0.289841,-0.86953 -0.365451,-0.71236 -0.826337,-1.3957 -1.4078,-1.94607 -0.834144,-0.78954 -1.859756,-1.373 -2.898412,-1.86327 -1.428883,-0.67447 -2.975816,-1.08461 -4.513244,-1.44921 -1.304873,-0.30945 -2.904288,-1.30007 -4.244103,-1.24218 -0.923047,0.0399 -2.422246,1.28359 -2.422246,1.28359 z"
         id="path1" /><path
         style="opacity:1;fill:none;fill-opacity:1;stroke:#7f55b1;stroke-width:0.15;stroke-linecap:round;stroke-linejoin:round;stroke-opacity:1;paint-order:markers fill stroke"
         d="m 81.73436,115.45709 c 0.145797,1.16135 0.905447,1.86203 1.660414,2.66602 0.656206,0.96327 1.521142,1.45973 2.595853,1.8475"
         id="path12" /><path
         style="opacity:1;fill:none;fill-opacity:1;stroke:#7f55b1;stroke-width:0.15;stroke-linecap:round;stroke-linejoin:round;stroke-opacity:1;paint-order:markers fill stroke"
         d="m 84.564076,112.44029 c 0.179011,1.08783 0.351731,2.1634 0.724969,3.20389 0.417412,1.08134 1.147372,1.97735 1.824114,2.89988 0.129322,0.18394 0.374179,0.56126 0.374179,0.56126"
         id="path13" /><path
         style="opacity:1;fill:none;fill-opacity:1;stroke:#7f55b1;stroke-width:0.15;stroke-linecap:round;stroke-linejoin:round;stroke-opacity:1;paint-order:markers fill stroke"
         d="m 84.938255,108.34772 c 0,0 0.672688,1.41496 0.935442,2.15152 0.231334,0.64849 0.344815,1.33422 0.561266,1.98782 0.385771,1.45817 1.095043,2.75119 1.917661,3.99902 0.377698,0.57482 0.755589,1.15274 1.192688,1.6838 0.143665,0.17455 0.467723,0.49111 0.467723,0.49111"
         id="path14" /><path
         style="opacity:1;fill:none;fill-opacity:1;stroke:#7f55b1;stroke-width:0.15;stroke-linecap:round;stroke-linejoin:round;stroke-opacity:1;paint-order:markers fill stroke"
         d="m 86.926072,108.11386 c 0,0 0.844766,0.924 1.216076,1.42655 1.371276,2.19558 2.458422,4.78804 3.086962,7.31985 0.06561,0.29054 0.09355,0.88867 0.09355,0.88867"
         id="path15" /><path
         style="opacity:1;fill:none;fill-opacity:1;stroke:#7f55b1;stroke-width:0.15;stroke-linecap:round;stroke-linejoin:round;stroke-opacity:1;paint-order:markers fill stroke"
         d="m 91.042023,112.72092 c 0,0 0.628938,0.7061 0.841899,1.12253 0.451162,0.96722 0.508419,1.97005 0.514496,3.01681"
         id="path16" /></g><g
       id="g17"
       style="display:inline"
       transform="translate(-36.720673,-80.519169)"><path
         style="display:inline;opacity:1;fill:#c1afd6;fill-opacity:1;stroke:#7f55b1;stroke-width:0.15;stroke-linecap:round;stroke-linejoin:round;stroke-opacity:1;paint-order:markers fill stroke"
         d="m 79.319061,104.00157 c 0,0 -0.153669,1.97296 -0.275204,2.86705 -0.137529,1.01176 -0.339534,2.01376 -0.496869,3.02263 -0.131135,0.84087 -0.225556,1.68753 -0.372655,2.52576 -0.13147,0.74916 -0.262185,1.50027 -0.455464,2.23592 -0.125331,0.47703 -0.224296,0.97211 -0.455465,1.4078 -0.336447,0.63411 -0.824486,1.18307 -1.324988,1.69764 -0.574181,0.59032 -1.219226,1.117 -1.904672,1.57343 -0.493318,0.32849 -1.0084,0.64917 -1.573424,0.82811 -0.716473,0.2269 -1.484881,0.26227 -2.235917,0.28985 -0.994603,0.0365 -1.99746,-0.0147 -2.981224,-0.16563 -0.830505,-0.12742 -1.657182,-0.32353 -2.442949,-0.62109 -0.6967,-0.26383 -1.292845,-0.75299 -1.987483,-1.0222 -0.310819,-0.12047 -0.6154,-0.20219 -0.965276,-0.26138 -0.136764,-0.0231 -0.416976,-0.0441 -0.483932,-0.16562 -0.07449,-0.13514 0.05663,-0.38925 0.142334,-0.51757 0.07608,-0.11391 0.149049,-0.36729 0.196677,-0.55899 0.06469,-0.26039 0.112854,-0.44552 0.11927,-0.79602 0.0079,-0.43236 -0.02989,-1.01867 -0.06754,-1.19146 -0.03936,-0.18063 -0.220701,-0.97877 -0.33898,-1.48026 -0.130221,-0.55212 -0.289841,-1.67694 -0.289841,-1.67694 0,0 0.06112,-1.08082 0.186328,-1.60448 0.150546,-0.62963 0.334866,-1.26971 0.672843,-1.82186 0.313608,-0.51234 0.777782,-0.92004 1.221476,-1.32498 0.344936,-0.31481 0.708822,-0.61667 1.112326,-0.85176 0.533306,-0.31073 1.242956,-0.97708 1.821457,-1.19226 0.778156,-0.28944 2.254434,-0.96619 2.254434,-0.96619 0,0 1.824573,-0.61972 2.75217,-0.87835 1.130962,-0.31534 2.221239,-0.54986 3.425573,-0.8198 1.106164,-0.24794 2.359236,-0.63348 3.396291,-0.17567 0.648902,0.28646 1.350704,1.64432 1.350704,1.64432 z"
         id="path2" /><path
         style="display:inline;opacity:1;fill:none;fill-opacity:1;stroke:#7f55b1;stroke-width:0.15;stroke-linecap:round;stroke-linejoin:round;stroke-opacity:1;paint-order:markers fill stroke"
         d="m 65.89029,108.61666 c 0,0 -0.915397,0.96727 -1.333008,1.48502 -0.446895,0.55406 -0.91762,1.10172 -1.251154,1.73057 -0.27212,0.51306 -0.596347,1.63703 -0.596347,1.63703"
         id="path17" /><path
         style="display:inline;opacity:1;fill:none;fill-opacity:1;stroke:#7f55b1;stroke-width:0.15;stroke-linecap:round;stroke-linejoin:round;stroke-opacity:1;paint-order:markers fill stroke"
         d="m 69.959468,108.85052 c 0,0 -1.112958,0.72084 -1.648719,1.11084 -0.428669,0.31204 -0.879606,0.60396 -1.251154,0.98222 -0.393858,0.40097 -0.656417,0.91381 -1.017297,1.3447 -0.320538,0.38272 -1.017293,1.09914 -1.017293,1.09914"
         id="path18" /><path
         style="display:inline;opacity:1;fill:none;fill-opacity:1;stroke:#7f55b1;stroke-width:0.15;stroke-linecap:round;stroke-linejoin:round;stroke-opacity:1;paint-order:markers fill stroke"
         d="m 73.303679,107.50582 c 0,0 -2.315342,2.87718 -3.61315,4.18611 -1.1687,1.17871 -3.741774,3.28575 -3.741774,3.28575"
         id="path19" /><path
         style="display:inline;opacity:1;fill:none;fill-opacity:1;stroke:#7f55b1;stroke-width:0.15;stroke-linecap:round;stroke-linejoin:round;stroke-opacity:1;paint-order:markers fill stroke"
         d="m 72.379929,113.85515 c 0,0 -1.729285,1.64631 -2.6894,2.3503 -0.960635,0.70437 -3.051884,1.85919 -3.051884,1.85919"
         id="path20" /><path
         style="display:inline;opacity:1;fill:none;fill-opacity:1;stroke:#7f55b1;stroke-width:0.15;stroke-linecap:round;stroke-linejoin:round;stroke-opacity:1;paint-order:markers fill stroke"
         d="m 73.759707,115.35185 c 0,0 -1.283968,1.58142 -2.104747,2.16322 -1.012957,0.71802 -3.37929,1.56687 -3.37929,1.56687"
         id="path21" /></g><g
       id="g26"
       style="display:inline"
       transform="translate(-36.720673,-80.519169)"><path
         style="display:inline;opacity:1;fill:#c1afd6;fill-opacity:1;stroke:#7f55b1;stroke-width:0.15;stroke-linecap:round;stroke-linejoin:round;stroke-opacity:1;paint-order:markers fill stroke"
         d="m 78.008712,102.33468 c -0.325877,0.0903 -0.683044,-0.0672 -1.014444,0 -0.38187,0.0775 -0.71765,0.30377 -1.076556,0.45546 -0.310497,0.13123 -0.603774,0.31501 -0.931632,0.39336 -0.289317,0.0691 -0.607648,-0.0308 -0.890228,0.0621 -0.489222,0.16086 -0.890177,0.52196 -1.304284,0.82811 -0.554943,0.41027 -1.036577,0.91202 -1.573424,1.3457 -0.540057,0.43628 -1.024763,0.97437 -1.656236,1.26288 -0.891271,0.40721 -1.899113,0.65074 -2.877709,0.60038 -0.658236,-0.0339 -1.271434,-0.35702 -1.883969,-0.60038 -0.725733,-0.28833 -1.492406,-0.53875 -2.111703,-1.01445 -0.403653,-0.31006 -0.647905,-0.78591 -0.99374,-1.15937 -0.470804,-0.50841 -1.469909,-1.4699 -1.469909,-1.4699 0,0 -1.026738,-1.43383 -1.428504,-2.21522 -0.342799,-0.6667 -0.57908,-1.3839 -0.828116,-2.090997 -0.201581,-0.572356 -0.39193,-1.150144 -0.538279,-1.739048 -0.125346,-0.50439 -0.482217,-1.0492 -0.289841,-1.532017 0.05672,-0.142344 0.221673,-0.242995 0.372653,-0.26914 0.219497,-0.03801 0.421557,0.05418 0.641791,0.0207 0.507127,-0.07709 1.283584,-0.683199 1.283584,-0.683199 0,0 1.835831,-1.710458 2.836304,-2.463649 0.729442,-0.549149 1.508048,-1.032811 2.298028,-1.490613 0.704988,-0.408548 1.399499,-0.864257 2.173809,-1.117959 0.624246,-0.204533 1.290188,-0.34696 1.946077,-0.310545 0.621854,0.03453 1.218956,0.275655 1.801156,0.496872 0.877051,0.33325 1.745078,0.721782 2.52576,1.242176 0.732481,0.488264 1.416829,1.068761 1.987484,1.739048 0.548645,0.644434 1.086779,1.347333 1.345692,2.153106 0.167113,0.520079 0.09689,1.089304 0.103513,1.635532 0.0065,0.53174 -0.06482,1.062356 -0.06211,1.594128 0.0021,0.421463 -0.02403,0.850309 0.06211,1.26288 0.04375,0.209523 0.111514,0.420643 0.227732,0.600384 0.280853,0.434371 0.738888,0.724271 1.097256,1.097261 0.169177,0.17608 0.359708,0.33626 0.496872,0.53828 0.107497,0.15832 0.303416,0.33427 0.248435,0.51757 -0.05781,0.19271 -0.323674,0.25685 -0.517572,0.31056 z"
         id="path3" /><path
         style="opacity:1;fill:none;fill-opacity:1;stroke:#7f55b1;stroke-width:0.15;stroke-linecap:round;stroke-linejoin:round;stroke-opacity:1;paint-order:markers fill stroke"
         d="m 72.628124,96.605988 c 0,0 -1.443603,-1.325744 -2.282031,-1.81901 -0.698758,-0.411096 -1.459468,-0.741736 -2.248958,-0.926042 -0.94693,-0.22106 -1.93817,-0.215212 -2.910417,-0.198437 -0.753502,0.013 -2.248958,0.23151 -2.248958,0.23151"
         id="path22" /><path
         style="opacity:1;fill:none;fill-opacity:1;stroke:#7f55b1;stroke-width:0.15;stroke-linecap:round;stroke-linejoin:round;stroke-opacity:1;paint-order:markers fill stroke"
         d="m 71.007551,98.491145 c 0,0 -1.91226,-1.350672 -2.976562,-1.819011 C 67.411426,96.399499 66.74177,96.250728 66.079687,96.109895 64.675196,95.811143 61.81328,95.514582 61.81328,95.514582"
         id="path23" /><path
         style="opacity:1;fill:none;fill-opacity:1;stroke:#7f55b1;stroke-width:0.15;stroke-linecap:round;stroke-linejoin:round;stroke-opacity:1;paint-order:markers fill stroke"
         d="m 69.320832,99.847134 c 0,0 -1.950665,-0.636882 -2.943489,-0.892969 -0.971476,-0.250581 -1.974179,-0.369556 -2.94349,-0.628385 -0.660198,-0.176289 -1.951302,-0.628385 -1.951302,-0.628385"
         id="path24" /><path
         style="opacity:1;fill:none;fill-opacity:1;stroke:#7f55b1;stroke-width:0.15;stroke-linecap:round;stroke-linejoin:round;stroke-opacity:1;paint-order:markers fill stroke"
         d="m 58.274478,97.002863 c 0,0 1.173943,1.179201 1.852084,1.653646 0.994169,0.695546 2.083002,1.265509 3.208073,1.719791 0.977299,0.39461 2.010757,0.64563 3.042708,0.8599 0.969366,0.20127 2.943489,0.39687 2.943489,0.39687"
         id="path25" /><path
         style="opacity:1;fill:none;fill-opacity:1;stroke:#7f55b1;stroke-width:0.15;stroke-linecap:round;stroke-linejoin:round;stroke-opacity:1;paint-order:markers fill stroke"
         d="m 67.799478,103.88203 c 0,0 -2.263918,-0.083 -3.340364,-0.39688 -0.657963,-0.19188 -1.275015,-0.5232 -1.852084,-0.89296 -0.553833,-0.35487 -1.050031,-0.79795 -1.521354,-1.25677 -0.492685,-0.47962 -1.355989,-1.554432 -1.355989,-1.554432"
         id="path26" /></g><g
       id="g30"
       style="display:inline"
       transform="translate(-36.720673,-80.519169)"><path
         style="display:inline;opacity:1;fill:#c1afd6;fill-opacity:1;stroke:#7f55b1;stroke-width:0.15;stroke-linecap:round;stroke-linejoin:round;stroke-opacity:1;paint-order:markers fill stroke"
         d="m 81.776648,101.65148 c 0.342233,-0.17548 0.771453,-0.072 1.138661,-0.18633 0.400841,-0.12483 0.811198,-0.27556 1.138664,-0.53828 0.517893,-0.41549 0.836217,-1.032654 1.221472,-1.573419 0.549757,-0.771668 0.960532,-1.641234 1.552721,-2.38084 0.469729,-0.58666 0.997476,-1.132026 1.573424,-1.614829 0.658617,-0.552103 1.38618,-1.022893 2.132404,-1.449207 0.477114,-0.272573 0.954912,-0.581595 1.490612,-0.703901 0.867921,-0.198156 1.783935,-0.09964 2.670681,-0.02069 0.783281,0.06974 1.569251,0.196701 2.318731,0.434761 0.520926,0.165463 1.011755,0.419684 1.490612,0.683196 0.57688,0.317453 1.168313,0.634408 1.65624,1.076555 0.5239,0.474745 1.32498,1.656236 1.32498,1.656236 0,0 0.8025,0.969889 1.11796,1.511314 0.23952,0.411082 0.34859,0.888417 0.57969,1.304287 0.22686,0.408227 0.51884,0.776797 0.78671,1.159367 0.26365,0.37655 0.81737,0.65839 0.80741,1.11796 -0.0118,0.54522 -0.63956,0.88751 -1.01444,1.28358 -0.54445,0.57521 -1.18043,1.05643 -1.78045,1.57342 -0.51208,0.44122 -1.55273,1.30429 -1.55273,1.30429 0,0 -0.775843,0.63537 -1.180065,0.93163 -0.356622,0.26137 -0.613451,0.57887 -0.952335,0.82812 -0.391875,0.28823 -0.820042,0.57725 -1.242177,0.76601 -0.416408,0.1862 -0.856738,0.32593 -1.304286,0.41406 -0.594918,0.11716 -1.181793,0.27643 -1.780453,0.37265 -0.425123,0.0683 -0.894574,-0.009 -1.32499,-0.0207 -0.454767,-0.0126 -0.90533,-0.11347 -1.345689,-0.22773 -0.460567,-0.1195 -0.921995,-0.25964 -1.345692,-0.47617 -0.507962,-0.25959 -0.955061,-0.626 -1.4078,-0.97304 -0.330303,-0.25319 -0.652761,-0.51851 -0.952336,-0.80741 -1.523962,-1.46964 -2.117903,-2.50383 -3.93356,-3.4988 -0.328199,-0.17985 -0.705,-0.25851 -1.035148,-0.43476 -0.342762,-0.18298 -0.678885,-0.38795 -0.97304,-0.6418 -0.133198,-0.11495 -0.356829,-0.21748 -0.351949,-0.39335 0.0062,-0.22438 0.276426,-0.37376 0.476168,-0.47618 z"
         id="path4" /><path
         style="opacity:1;fill:none;fill-opacity:1;stroke:#7f55b1;stroke-width:0.15;stroke-linecap:round;stroke-linejoin:round;stroke-opacity:1;paint-order:markers fill stroke"
         d="m 99.665233,104.21276 c 0,0 -1.49832,0.78249 -2.298568,1.0418 -0.813452,0.26359 -1.664925,0.40757 -2.513541,0.51263 -0.969247,0.12 -1.950989,0.16882 -2.926953,0.13229 -0.782295,-0.0293 -2.331641,-0.28112 -2.331641,-0.28112"
         id="path27" /><path
         style="opacity:1;fill:none;fill-opacity:1;stroke:#7f55b1;stroke-width:0.15;stroke-linecap:round;stroke-linejoin:round;stroke-opacity:1;paint-order:markers fill stroke"
         d="m 89.627603,102.37721 c 0,0 1.697982,0.0486 2.546615,0.0827 1.494303,0.0601 2.98638,0.25409 4.48138,0.21498 1.927249,-0.0504 5.754692,-0.57878 5.754692,-0.57878"
         id="path28" /><path
         style="opacity:1;fill:none;fill-opacity:1;stroke:#7f55b1;stroke-width:0.15;stroke-linecap:round;stroke-linejoin:round;stroke-opacity:1;paint-order:markers fill stroke"
         d="m 100.1944,99.929816 c 0,0 -2.003702,-0.477371 -3.026172,-0.562239 -0.91203,-0.0757 -1.832426,-0.01853 -2.745052,0.04961 -0.925906,0.06913 -1.846812,0.204856 -2.761589,0.363802 -0.950154,0.165093 -2.827734,0.611851 -2.827734,0.611851"
         id="path29" /><path
         style="opacity:1;fill:none;fill-opacity:1;stroke:#7f55b1;stroke-width:0.15;stroke-linecap:round;stroke-linejoin:round;stroke-opacity:1;paint-order:markers fill stroke"
         d="m 97.747004,96.043749 c 0,0 -1.566387,-0.388474 -2.364714,-0.380339 -0.616245,0.0063 -1.219841,0.186528 -1.81901,0.330729 -0.985046,0.237069 -1.993563,0.445276 -2.910417,0.876433 -1.018227,0.478829 -2.811197,1.868619 -2.811197,1.868619"
         id="path30" /></g><g
       id="g12"
       style="display:inline"
       transform="translate(-36.720673,-80.519169)"><path
         style="opacity:1;fill:#c36a95;fill-opacity:1;stroke:#6e2d4c;stroke-width:0.15;stroke-linecap:round;stroke-linejoin:round;stroke-opacity:1;paint-order:markers fill stroke"
         d="m 76.538801,101.44445 c -0.570793,0.0813 -0.917931,0.71565 -1.273231,1.16971 -0.220569,0.28188 -0.336278,0.67924 -0.486518,1.0041 -0.150408,0.32522 -0.226124,0.68254 -0.289843,1.03515 -0.07266,0.4021 -0.09596,0.81292 -0.103513,1.22147 -0.0054,0.29012 -0.0265,0.58741 0.0414,0.86952 0.07444,0.30929 0.196266,0.61982 0.393356,0.86953 0.216365,0.27414 0.493996,0.54018 0.82812,0.64179 0.191924,0.0584 0.433706,-0.15302 0.600384,-0.0414 0.126928,0.085 0.156959,0.28248 0.14492,0.43477 -0.01532,0.19385 -0.14759,0.36578 -0.269136,0.51757 -0.107146,0.1338 -0.232734,0.27138 -0.393356,0.33125 -0.472089,0.17597 -1.040635,-0.159 -1.511316,0.0207 -0.196502,0.075 -0.343302,0.25099 -0.476168,0.41405 -0.160051,0.19642 -0.327325,0.41322 -0.372653,0.6625 -0.03248,0.17861 0.03069,0.36438 0.08281,0.53827 0.05231,0.17452 0.154933,0.32986 0.227732,0.49688 0.08654,0.19854 0.120101,0.42591 0.248434,0.60038 0.223556,0.30392 0.514771,0.59616 0.869524,0.7246 0.220619,0.0799 0.482122,-0.0766 0.7039,0 0.422783,0.14602 0.699899,0.55726 1.055851,0.82812 0.28668,0.21815 0.576477,0.43227 0.869524,0.64179 0.177524,0.12692 0.323584,0.33353 0.538277,0.37266 0.251931,0.0459 0.490321,-0.16267 0.745307,-0.18633 0.34419,-0.0319 0.694516,0.12091 1.035145,0.0621 0.295562,-0.051 0.567552,-0.20341 0.82812,-0.35195 0.394502,-0.2249 0.765566,-0.49727 1.097256,-0.80742 0.382725,-0.35787 0.692827,-0.78711 1.014444,-1.20077 0.218628,-0.28119 0.539253,-0.52286 0.621088,-0.86952 0.061,-0.25838 0.0029,-0.55363 -0.124216,-0.78671 -0.248049,-0.45484 -0.709881,-0.77752 -1.159365,-1.03515 -0.390047,-0.22356 -0.964149,-0.0977 -1.283584,-0.41406 -0.124046,-0.12285 -0.204129,-0.32659 -0.165623,-0.49687 0.05705,-0.2523 0.30393,-0.44947 0.538276,-0.55898 0.35724,-0.16694 0.802161,0.0298 1.180068,-0.0828 0.325687,-0.097 0.62028,-0.29044 0.890228,-0.49687 0.345007,-0.26383 0.732114,-0.53583 0.910928,-0.93164 0.190887,-0.42253 0.08226,-0.92393 0.103516,-1.38709 0.01836,-0.3999 0.112842,-0.8112 0.02072,-1.20077 -0.07885,-0.33343 -0.255597,-0.64875 -0.476168,-0.91093 -0.263018,-0.31264 -0.57345,-0.66017 -0.97304,-0.74531 -0.145701,-0.031 -0.335816,-0.008 -0.434761,0.10352 -0.198418,0.22333 -0.153841,0.59575 -0.103515,0.89022 0.05563,0.32552 0.250669,0.61606 0.434761,0.89023 0.190725,0.28405 0.656028,0.42495 0.683199,0.76601 0.01627,0.20418 -0.18316,0.37606 -0.331248,0.51757 -0.259296,0.24778 -0.600385,0.40078 -0.931632,0.53828 -0.171616,0.0712 -0.356451,0.18321 -0.538277,0.14492 -0.31217,-0.0657 -0.555668,-0.34386 -0.745307,-0.60039 -0.09427,-0.12752 -0.240552,-0.3759 -0.28984,-0.7246 -0.03883,-0.27469 0.05749,-0.55186 0.08281,-0.82812 0.01517,-0.1655 -0.03529,-0.34942 0.0414,-0.49687 0.124349,-0.23909 0.385661,-0.38642 0.621088,-0.51757 0.17158,-0.0956 0.414692,-0.0531 0.55898,-0.18633 0.181733,-0.16783 0.301303,-0.43608 0.289841,-0.68319 -0.01416,-0.30535 -0.220528,-0.58938 -0.434761,-0.80742 -0.316157,-0.32178 -0.742925,-0.55113 -1.180068,-0.6625 -0.528346,-0.1346 -1.112073,-0.1318 -1.635533,0.0207 -0.327278,0.0953 -0.703635,0.24048 -0.869524,0.53828 -0.157841,0.28335 -0.08658,0.66046 0,0.97304 0.06445,0.23268 0.273511,0.40095 0.372653,0.62109 0.112925,0.25075 0.231872,0.51221 0.248436,0.78671 0.01353,0.22427 -0.03054,0.45828 -0.124217,0.6625 -0.110534,0.24098 -0.278199,0.47117 -0.496872,0.62108 -0.226819,0.1555 -0.512731,0.27212 -0.786712,0.24844 -0.209105,-0.0181 -0.40523,-0.14697 -0.55898,-0.28984 -0.154331,-0.14341 -0.27121,-0.33634 -0.331247,-0.53828 -0.07475,-0.25145 -0.03946,-0.47162 0.0466,-0.71943 0.106084,-0.3055 0.187657,-0.57322 0.372655,-0.83847 0.118497,-0.1699 0.329857,-0.30328 0.38818,-0.50204 0.04085,-0.13922 0.191845,-0.31676 0.124205,-0.44512 -0.128566,-0.24398 -0.43088,-0.47364 -0.703907,-0.43476 z"
         id="path6" /><path
         style="opacity:1;fill:none;fill-opacity:1;stroke:#6e2d4c;stroke-width:0.15;stroke-linecap:round;stroke-linejoin:round;stroke-opacity:1;paint-order:markers fill stroke"
         d="m 77.032335,102.47746 c 0,0 -0.312099,0.4147 -0.557179,0.5532 -0.248952,0.14069 -0.660217,0.44876 -0.892992,0.61485 -0.210679,0.15032 -0.26017,0.15885 -0.503642,0.34794 -0.192003,0.14911 -0.408208,0.32974 -0.521099,0.54505 -0.07814,0.14902 -0.146394,0.48309 -0.146394,0.48309"
         id="path7" /><path
         style="opacity:1;fill:none;fill-opacity:1;stroke:#6e2d4c;stroke-width:0.15;stroke-linecap:round;stroke-linejoin:round;stroke-opacity:1;paint-order:markers fill stroke"
         d="m 82.848026,104.48261 c 0,0 0.326517,0.21781 0.42441,0.33642 0.109074,0.13216 0.20202,0.28566 0.295016,0.42959 0.07297,0.11293 0.164772,0.23571 0.222556,0.35712 0.07926,0.16653 0.129932,0.34698 0.165624,0.52793 0.03519,0.17838 0.05735,0.36195 0.04658,0.54345 -0.003,0.051 -0.03105,0.1501 -0.03105,0.1501"
         id="path8" /><path
         style="opacity:1;fill:none;fill-opacity:1;stroke:#6e2d4c;stroke-width:0.15;stroke-linecap:round;stroke-linejoin:round;stroke-opacity:1;paint-order:markers fill stroke"
         d="m 75.213812,111.52678 c 0,0 0.45492,0.45798 0.7039,0.6625 0.321105,0.26377 0.638342,0.54788 1.014445,0.7246 0.342386,0.16087 0.722466,0.23845 1.097256,0.28984 0.47864,0.0656 0.975584,0.11601 1.449207,0.0207 0.405977,-0.0817 0.777306,-0.2946 1.138661,-0.49687 0.315726,-0.17673 0.890228,-0.62109 0.890228,-0.62109"
         id="path9" /><path
         style="opacity:1;fill:#a54371;fill-opacity:1;stroke:#6e2d4c;stroke-width:0.15;stroke-linecap:round;stroke-linejoin:round;stroke-opacity:1;paint-order:markers fill stroke"
         d="m 81.062395,103.1835 c 0.105905,-0.0752 0.291213,-0.0904 0.336423,-0.21221 0.06285,-0.1693 -0.06175,-0.37252 -0.175974,-0.5124 -0.178542,-0.21864 -0.462031,-0.34019 -0.729779,-0.42958 -0.306314,-0.10227 -0.639753,-0.10827 -0.962687,-0.10869 -0.236055,-3.1e-4 -0.488487,-0.0189 -0.7039,0.0776 -0.148268,0.0664 -0.265752,0.19539 -0.362302,0.32607 -0.09495,0.12851 -0.170437,0.35294 -0.119041,0.51241 0.04684,0.14533 0.160336,0.27662 0.258785,0.39335 0.07011,0.0831 0.05855,0.0685 0.144921,0.13457 0.168375,0.1288 0.332386,0.27857 0.533101,0.34677 0.14583,0.0496 0.306668,0.04 0.46064,0.0362 0.161727,-0.004 0.325611,-0.0183 0.481343,-0.0621 0.170987,-0.0481 0.336325,-0.12255 0.486521,-0.21738 0.130374,-0.0823 0.226246,-0.19533 0.351949,-0.28461 z"
         id="path10" /><path
         style="opacity:1;fill:url(#linearGradient12);stroke:none;stroke-width:0.15;stroke-linecap:round;stroke-linejoin:round;stroke-opacity:1;paint-order:markers fill stroke"
         d="m 78.629492,103.365 c 0,0 0.06665,0.2305 0.06839,0.34904 0.0026,0.17827 -0.0269,0.35745 -0.08739,0.52768 -0.05647,0.15894 -0.191567,0.39936 -0.29937,0.52909 -0.153532,0.18476 -0.342054,0.30059 -0.40433,0.33542 -0.150032,0.0839 -0.740743,0.29946 -0.894527,0.37628 -0.237472,0.11862 -0.876581,2.26249 -0.869569,2.38126 0.01103,0.1868 1.055441,-0.0338 1.164781,0.11808 0.08087,0.11232 0.428387,0.3544 0.566143,0.34098 0.172943,-0.0168 0.189758,-0.23258 0.362987,-0.24619 0.321854,-0.0253 0.446599,0.18705 0.756773,0.0975 0.181951,-0.0525 0.24196,0.22882 0.415332,0.15261 0.163848,-0.072 0.168266,-0.26385 0.294531,-0.137 0.112399,0.11292 0.0037,0.0142 0.131891,0.10883 0.12167,0.0898 0.309546,0.14465 0.446495,0.0805 0.187998,-0.0881 0.623092,-0.0856 0.658213,-0.29025 0.02318,-0.13503 0.390463,-1.2658 0.339123,-1.61414 -0.01098,-0.0745 -0.519925,-0.72677 -0.592118,-0.85558 -0.06957,-0.12414 -0.129283,-0.23859 -0.133746,-0.25171 -0.007,-0.0205 -0.07167,-0.20992 -0.07947,-0.24177 -0.006,-0.0245 -0.03403,-0.16065 -0.0417,-0.25072 -0.0077,-0.0906 -0.0036,-0.17396 -0.0027,-0.18591 0.01084,-0.13759 0.06167,-0.39913 0.06532,-0.43298 0.0029,-0.0264 0.01916,-0.1029 0.02495,-0.18263 0.0055,-0.0755 -0.0027,-0.15163 -0.0046,-0.21494 -0.0023,-0.0746 0.01715,-0.2045 0.01715,-0.2045 0,0 -0.132163,0.0587 -0.282452,0.10891 -0.133488,0.0447 -0.321974,0.0566 -0.354891,0.0594 -0.04675,0.004 -0.433759,0.007 -0.469062,0.005 -0.03017,-10e-4 -0.128541,-0.0255 -0.222644,-0.0641 -0.107436,-0.044 -0.209933,-0.10723 -0.209933,-0.10723"
         id="path11" /></g></g></svg>
