<?xml version="1.0" encoding="UTF-8" standalone="no"?>
<!-- Created with Inkscape (http://www.inkscape.org/) -->

<svg
   width="10mm"
   height="33mm"
   viewBox="0 0 10 33"
   version="1.1"
   id="svg1"
   xml:space="preserve"
   xmlns="http://www.w3.org/2000/svg"
   xmlns:svg="http://www.w3.org/2000/svg"><defs
     id="defs1" /><g
     id="layer1"><g
       id="g3"
       transform="translate(-14.684374,-25.135417)"><path
         style="fill:#a1bc98;fill-opacity:1;stroke:#5f8053;stroke-width:0.1;stroke-linecap:round;stroke-dasharray:none;stroke-opacity:1;paint-order:markers fill stroke"
         d="m 20.934049,57.707709 -0.439175,-5.211553 c 0,0 1.015916,-7.602337 2.664333,-8.256508 1.728383,-0.685906 0.829133,-0.06482 0.481884,0.621778 -0.196623,0.388769 -0.671166,1.321676 -0.671166,1.321676 L 22.0269,49.19878 21.054902,53.682746 c 0,0 -0.0207,0.165624 -0.186327,0.952336 -0.165623,0.786712 0.06548,3.072627 0.06548,3.072627 z"
         id="path2" /><path
         style="fill:#a1bc98;fill-opacity:1;stroke:#5f8053;stroke-width:0.1;stroke-linecap:round;stroke-dasharray:none;stroke-opacity:1;paint-order:markers fill stroke"
         d="m 19.442656,50.674349 c -0.01035,-0.06211 -0.16821,-3.616548 -0.16821,-3.616548 0,0 -1.991716,-2.597305 -3.727621,-8.820223 -0.418641,-1.500756 -0.42975,0.189808 -0.240169,1.710448 0.113235,0.908263 0.41792,1.795855 0.41792,1.795855 0,0 0.876272,2.671437 1.81318,4.398862 0.936909,1.727427 1.9049,4.531606 1.9049,4.531606 z"
         id="path3" /><path
         style="fill:#97a87a;fill-opacity:1;stroke:#65734b;stroke-width:0.1;stroke-linecap:round;stroke-dasharray:none;stroke-opacity:1;paint-order:markers fill stroke"
         d="m 18.715466,35.277824 c 0.331247,8.446804 0.959613,19.76555 0.959613,19.76555 l 0.05856,2.752169 1.229693,-0.05856 -1.229693,-14.229299 -0.409897,-8.490734 z"
         id="path1" /></g><path
       style="display:inline;fill:#eae277;fill-opacity:1;stroke:#c8be3d;stroke-width:0.102269;stroke-linecap:round;stroke-dasharray:none;stroke-opacity:1;paint-order:markers fill stroke"
       d="m 2.2666055,2.7432254 c -0.273575,0.577722 -0.585128,1.4677183 -0.646587,1.8121793 -0.103343,0.579214 -0.181436,1.225866 -0.225459,1.754608 -0.0465,0.558508 0.0531,1.210488 0.204383,1.748271 0.191215,0.679718 0.715314,-0.215148 1.018811,0.426778 0.104329,0.220666 -0.516379,-0.07444 0.477015,-0.193069 0,0 1.188519,0.865691 1.737002,0.594302 0.492191,-0.243535 0.423788,-1.020475 0.52164,-1.562671 0.142636,-0.790343 0.17076,-1.874781 0.08589,-2.411316 -0.0775,-0.489959 -0.303692,-1.3979303 -0.419882,-1.7445193 -0.0792,-0.236247 -0.396997,-1.228433 -0.492301,-1.458063 -0.146713,-0.353497 -0.294397,-0.83397701 -0.465972,-1.07638601 -0.214698,-0.303336 -1.000717,0.79313601 -1.000717,0.79313601 0,0 -0.573616,0.851726 -0.793825,1.31675 z"
       id="path4-4-7" /><g
       id="g7"
       transform="translate(-14.520672,-24.948329)"
       style="fill:#fff89a;fill-opacity:1"><path
         style="fill:#9e3b3b;fill-opacity:1;stroke:#9e3b3b;stroke-width:0.137893;stroke-linecap:round;stroke-linejoin:round;stroke-dasharray:none;stroke-opacity:1;paint-order:markers fill stroke"
         d="m 18.966215,34.404494 c 0,0 -1.510121,-1.435366 -1.931657,-2.386546 -0.259962,-0.586594 -0.534081,-1.315241 -0.311558,-1.919249 0.11705,-0.31772 0.450899,-0.549341 0.763316,-0.617499 0.440564,-0.09611 0.974561,0.028 1.308543,0.350472 0.316037,0.305145 0.43618,1.285063 0.43618,1.285063 0,0 0.123485,-1.003318 0.436181,-1.33513 0.218167,-0.231502 0.566159,-0.341784 0.872361,-0.317094 0.338118,0.02726 0.765376,0.168925 0.903518,0.500674 0.277594,0.666639 -0.190222,1.477275 -0.514071,2.119519 -0.463025,0.918252 -1.962813,2.31979 -1.962813,2.31979 z"
         id="path9" /><g
         id="g1"><path
           style="opacity:1;fill:#eae277;fill-opacity:1;stroke:#c8be3d;stroke-width:0.1;stroke-linecap:round;stroke-dasharray:none;stroke-opacity:1;paint-order:markers fill stroke"
           d="m 21.598682,26.30537 c 0,0 -0.246974,0.307624 -0.36587,0.425815 -0.230069,0.228705 -0.527579,0.595086 -0.727604,0.959114 -0.332809,0.605683 -0.373733,0.866347 -0.429948,1.149284 -0.133886,0.673872 -0.104404,0.898166 -0.214978,1.637109 -0.04265,0.285057 -0.248766,1.001754 -0.239776,1.289845 0.008,0.256427 -0.08479,1.025031 -0.08268,1.281575 0.0079,0.964531 -0.139043,1.558983 -0.264582,2.141471 l 0.93431,-1.810742 0.23151,-1.099675 0.223242,-0.802018 0.06615,-1.488281 0.132292,-1.058334 0.223242,-0.802018 0.289388,-0.868164 z"
           id="path7" /><path
           style="display:inline;opacity:1;fill:#fff89a;fill-opacity:1;stroke:#cabf40;stroke-width:0.1;stroke-linecap:round;stroke-dasharray:none;stroke-opacity:1;paint-order:markers fill stroke"
           d="m 19.293913,35.24746 0.661458,-0.06614 c 0.69779,-0.06977 1.141144,-0.545095 1.569631,-1.071273 0.321749,-0.395105 0.623693,-1.06005 0.691608,-1.354069 l 0.243411,-1.053786 c 0.09846,-0.426247 0.08077,-1.012655 0.06263,-1.349518 l -0.06213,-1.153921 c -0.02665,-0.495001 -0.238872,-0.936404 -0.35453,-1.418209 -0.09921,-0.413269 -0.311299,-1.214045 -0.318175,-1.24676 -0.01163,-0.05534 -0.07254,-0.311233 -0.143665,-0.29042 -0.07887,0.02308 -0.173141,0.656725 -0.281119,0.942579 -0.06734,0.178278 -0.181061,0.391332 -0.24598,0.570507 -0.08963,0.247381 -0.140723,0.507073 -0.21084,0.760677 -0.191993,0.694408 -0.401058,1.384357 -0.574642,2.083594 -0.06461,0.260249 -0.124214,0.521927 -0.173632,0.785482 -0.07658,0.408402 -0.120936,0.822255 -0.19017,1.231966 -0.04576,0.270775 -0.07903,0.544691 -0.148828,0.810286 -0.08374,0.318644 -0.231818,0.61756 -0.322459,0.93431 -0.08323,0.290856 -0.20257,0.884695 -0.20257,0.884695 z"
           id="path6" /></g><g
         id="g2"><path
           style="display:inline;fill:#eae277;fill-opacity:1;opacity:1;stroke:#c8be3d;stroke-width:0.1;stroke-linecap:round;stroke-dasharray:none;stroke-opacity:1;paint-order:markers fill stroke"
           d="m 15.432041,26.306136 c 0,0 0.387934,0.198088 0.5686,0.30792 0.389461,0.236764 0.740628,0.537049 1.066424,0.855786 0.223309,0.21847 0.417777,0.465949 0.602444,0.717929 0.282069,0.384886 0.576136,0.771071 0.768558,1.207733 0.181385,0.411616 0.277266,0.85922 0.35134,1.302888 0.0596,0.356983 0.06672,0.721436 0.0732,1.083302 0.0069,0.38563 -0.03123,0.770842 -0.0366,1.156496 -0.0089,0.641627 0.02856,1.283716 0.0073,1.925053 -0.0046,0.139339 -0.02928,0.417219 -0.02928,0.417219 0,0 -0.295297,-1.957518 -0.553297,-2.919093 -0.139423,-0.519637 -0.40168,-0.999834 -0.55629,-1.515157 -0.14694,-0.489757 -0.189534,-1.103215 -0.351341,-1.493198 -0.161807,-0.389983 -0.35265,-0.56524 -0.527011,-0.849074 -0.263047,-0.428204 -0.693153,-1.255466 -0.742271,-1.311633 -0.604944,-0.691763 -0.641776,-0.886171 -0.641776,-0.886171 z"
           id="path5" /><path
           style="fill:#fff89a;fill-opacity:1;display:inline;opacity:1;stroke:#cabf40;stroke-width:0.1;stroke-linecap:round;stroke-dasharray:none;stroke-opacity:1;paint-order:markers fill stroke"
           d="m 15.384233,26.256925 c -0.08547,-0.0718 0.08474,0.767466 0.07051,1.102021 -0.02155,0.506717 -0.131928,1.006056 -0.175975,1.511315 -0.04653,0.533703 -0.131316,1.070112 -0.09316,1.604479 0.04564,0.639208 0.177091,1.277116 0.383004,1.883968 0.149252,0.439867 0.347235,0.870004 0.610738,1.252529 0.21188,0.307584 0.356725,0.500407 0.621314,0.764024 0.190252,0.189553 0.499584,0.472629 0.734729,0.602372 0.306313,0.16901 0.67339,0.191199 1.014444,0.269137 0.08906,0.02035 0.283607,0.01249 0.283607,0.01249 0,0 -0.191999,-1.19035 -0.30431,-1.782586 -0.07552,-0.398258 -0.137692,-0.800484 -0.248435,-1.190419 -0.149398,-0.526042 -0.403909,-1.017972 -0.55898,-1.54237 -0.134577,-0.455096 -0.134483,-0.950663 -0.320896,-1.387096 -0.09398,-0.220027 -0.268287,-0.396424 -0.393356,-0.600388 -0.228645,-0.372876 -0.422008,-0.766701 -0.652143,-1.13866 -0.189827,-0.306811 -0.600385,-0.900579 -0.600385,-0.900579 0,0 -0.208879,-0.324283 -0.334169,-0.429539 z"
           id="path4" /></g></g><g
       id="g8"
       transform="translate(-14.684374,-25.135417)"
       style="fill:#fff89a;fill-opacity:1"><path
         style="display:inline;fill:#fff89a;fill-opacity:1;stroke:#cabf40;stroke-width:0.1;stroke-linecap:round;stroke-dasharray:none;stroke-opacity:1;paint-order:markers fill stroke"
         d="m 18.219242,28.011167 c -0.273727,0.552064 -0.585452,1.402533 -0.646945,1.731696 -0.103401,0.553489 -0.181537,1.171421 -0.225584,1.67668 -0.04653,0.533703 0.05313,1.156727 0.204496,1.670625 0.191321,0.64953 0.294527,1.224643 0.598192,1.838059 0.104387,0.210866 0.247319,0.625768 1.241264,0.512411 0,0 1.040735,-0.958575 1.395164,-1.559233 0.267962,-0.45412 0.424023,-0.975153 0.521929,-1.493268 0.142715,-0.755242 0.170855,-1.791517 0.08594,-2.304222 -0.07754,-0.468199 -0.30386,-1.335845 -0.420115,-1.667041 -0.07924,-0.225754 -0.397217,-1.173874 -0.492574,-1.393306 -0.146794,-0.337797 -0.29456,-0.796937 -0.46623,-1.02858 -0.214817,-0.289864 -1.001272,0.75791 -1.001272,0.75791 0,0 -0.573934,0.813898 -0.794265,1.258269 z"
         id="path4-4" /><path
         style="opacity:1;fill:#eae277;fill-opacity:1;stroke:#cabf40;stroke-width:0.1;stroke-linecap:round;stroke-dasharray:none;stroke-opacity:1;paint-order:markers fill stroke"
         d="m 19.380729,30.443619 c 0.169149,0.998359 -0.02817,1.791101 -0.0897,2.415262 -0.253624,2.572922 -0.46139,2.579838 -0.46139,2.579838"
         id="path8" /></g></g></svg>
